<svg width="16" height="17" viewBox="0 0 16 17" fill="none" xmlns="http://www.w3.org/2000/svg">
<g clip-path="url(#clip0_1_327)">
<path d="M10.24 11.6499L6 15.8899L1.76 11.6499C0.986667 10.8854 0.466667 9.97878 0.2 8.92989C-0.0666667 7.91656 -0.0666667 6.90323 0.2 5.88989C0.466667 4.841 0.984444 3.93211 1.75333 3.16323C2.52222 2.39434 3.43111 1.87211 4.48 1.59656C5.49333 1.33878 6.50667 1.33878 7.52 1.59656C8.56889 1.87211 9.47778 2.39434 10.2467 3.16323C11.0156 3.93211 11.5333 4.841 11.8 5.88989C12.0667 6.90323 12.0667 7.91656 11.8 8.92989C11.5333 9.97878 11.0133 10.8854 10.24 11.6499ZM6 8.74323C6.24 8.74323 6.46222 8.68323 6.66667 8.56323C6.87111 8.44323 7.03333 8.281 7.15333 8.07656C7.27333 7.87211 7.33333 7.64989 7.33333 7.40989C7.33333 7.16989 7.27333 6.94767 7.15333 6.74323C7.03333 6.53878 6.87111 6.37656 6.66667 6.25656C6.46222 6.13656 6.24 6.07656 6 6.07656C5.76 6.07656 5.53778 6.13656 5.33333 6.25656C5.12889 6.37656 4.96667 6.53878 4.84667 6.74323C4.72667 6.94767 4.66667 7.16989 4.66667 7.40989C4.66667 7.64989 4.72667 7.87211 4.84667 8.07656C4.96667 8.281 5.12889 8.44323 5.33333 8.56323C5.53778 8.68323 5.76 8.74323 6 8.74323Z" fill="black"/>
</g>
<defs>
<clipPath id="clip0_1_327">
<rect width="16" height="16" fill="white" transform="matrix(1 0 0 -1 0 16.6499)"/>
</clipPath>
</defs>
</svg>
