<svg width="16" height="16" viewBox="0 0 16 16" fill="none" xmlns="http://www.w3.org/2000/svg">
<g clip-path="url(#clip0_1_48)">
<path d="M10 2.66666H12.6667C12.8533 2.66666 13.0111 2.7311 13.14 2.85999C13.2689 2.98888 13.3333 3.14666 13.3333 3.33332V14C13.3333 14.1867 13.2689 14.3444 13.14 14.4733C13.0111 14.6022 12.8533 14.6667 12.6667 14.6667H0.666667C0.48 14.6667 0.322222 14.6022 0.193333 14.4733C0.0644444 14.3444 0 14.1867 0 14V3.33332C0 3.14666 0.0644444 2.98888 0.193333 2.85999C0.322222 2.7311 0.48 2.66666 0.666667 2.66666H3.33333V1.33332H4.66667V2.66666H8.66667V1.33332H10V2.66666ZM1.33333 6.66666V13.3333H12V6.66666H1.33333ZM2.66667 7.99999H4V9.33332H2.66667V7.99999ZM6 7.99999H7.33333V9.33332H6V7.99999ZM9.33333 7.99999H10.6667V9.33332H9.33333V7.99999Z" fill="#64748B"/>
</g>
<defs>
<clipPath id="clip0_1_48">
<rect width="16" height="16" fill="white" transform="matrix(1 0 0 -1 0 16)"/>
</clipPath>
</defs>
</svg>
