<svg width="17" height="16" viewBox="0 0 17 16" fill="none" xmlns="http://www.w3.org/2000/svg">
<g clip-path="url(#clip0_1_53)">
<path d="M11.1867 15H0.52002V13.6667C0.52002 13.0622 0.668908 12.5044 0.966686 11.9933C1.26446 11.4822 1.66891 11.0778 2.18002 10.78C2.69113 10.4822 3.24891 10.3333 3.85335 10.3333H7.85335C8.4578 10.3333 9.01558 10.4822 9.52669 10.78C10.0378 11.0778 10.4422 11.4822 10.74 11.9933C11.0378 12.5044 11.1867 13.0622 11.1867 13.6667V15ZM5.85335 9C5.13335 9 4.46224 8.81778 3.84002 8.45333C3.23558 8.09778 2.75558 7.61778 2.40002 7.01333C2.03558 6.39111 1.85335 5.72 1.85335 5C1.85335 4.28 2.03558 3.60889 2.40002 2.98667C2.75558 2.38222 3.23558 1.90222 3.84002 1.54667C4.46224 1.18222 5.13335 1 5.85335 1C6.57335 1 7.24446 1.18222 7.86669 1.54667C8.47113 1.90222 8.95113 2.38222 9.30669 2.98667C9.67113 3.60889 9.85335 4.28 9.85335 5C9.85335 5.72 9.67113 6.39111 9.30669 7.01333C8.95113 7.61778 8.47113 8.09778 7.86669 8.45333C7.24446 8.81778 6.57335 9 5.85335 9Z" fill="#64748B"/>
</g>
<defs>
<clipPath id="clip0_1_53">
<rect width="16" height="16" fill="white" transform="matrix(1 0 0 -1 0.52002 16)"/>
</clipPath>
</defs>
</svg>
